<?xml version="1.0" ?><!DOCTYPE svg  PUBLIC '-//W3C//DTD SVG 1.1//EN'  'http://www.w3.org/Graphics/SVG/1.1/DTD/svg11.dtd'><svg height="30px" style="shape-rendering:geometricPrecision; text-rendering:geometricPrecision; image-rendering:optimizeQuality; fill-rule:evenodd; clip-rule:evenodd" viewBox="0 0 2048 2048" width="2048px" xml:space="preserve" xmlns="http://www.w3.org/2000/svg" xmlns:xlink="http://www.w3.org/1999/xlink"><defs><style type="text/css">
   <![CDATA[
    .fil2 {fill:none}
    .fil1 {fill:#EB9D92}
    .fil0 {fill:#333333;fill-rule:nonzero}
   ]]>
  </style></defs><g id="Layer_x0020_1"><path class="fil0" d="M304.226 1024.9c-1.92992,93.7642 29.3764,185.495 83.3883,261.234 54.3142,76.1658 131.519,136.029 220.899,165.395l0.125197 0.0625985c86.7367,29.1319 183.767,32.0303 272.825,8.28544 83.4095,-22.2402 159.702,-67.9335 213.677,-137.407l0.250394 -0.249213c37.3784,-46.1575 61.4965,-99.5954 75.8032,-156.116 15.7193,-62.0977 19.611,-127.925 16.2189,-192.017 -126.225,-1.03701 -252.412,-0.83504 -378.46,-0.633071l-37.8815 0.0578741c-0.111024,42.6095 0.0377953,85.1304 0.21378,127.76 44.2288,1.02284 88.2261,1.26142 132.221,1.49882 40.1445,0.216142 80.2926,0.434646 120.17,1.22717l20.824 0.413386 -5.8252 19.9618c-12.4795,42.7607 -33.3874,84.0012 -62.3788,117.809 -26.4319,30.8244 -59.5264,55.5272 -99.0355,69.7536 -10.2886,4.5 -20.778,8.33505 -31.4079,11.5217 -71.2075,21.352 -148.173,13.3063 -214.777,-17.0646 -66.6296,-30.3827 -123.017,-83.1757 -153.041,-151.302 -4.45512,-10.1114 -8.33859,-20.5807 -11.5913,-31.3772 -2.6811,-7.1504 -5.00788,-14.2063 -6.98504,-21.15 -21.0284,-73.8556 -10.0724,-152.733 23.9776,-219.821 34.0488,-67.0843 91.2757,-122.552 162.781,-149.589 7.35119,-2.78032 14.6847,-5.2193 21.978,-7.29567l0.00236221 0.00826772c50.8181,-17.6669 102.155,-16.539 151.531,-4.42914 44.7059,10.9642 87.691,30.9461 127.097,53.9977 17.198,-16.4032 34.2579,-33.5764 51.2174,-51.2304 15.45,-16.0831 30.8906,-32.6929 46.317,-49.5414 -43.5083,-34.1551 -92.445,-61.5721 -144.475,-79.4257 -53.2205,-18.261 -109.675,-26.4803 -166.83,-21.6106l-1.12441 0c-3.06969,0.0366142 -6.38268,0.124016 -9.92127,0.257481 -112.441,4.26733 -217.585,58.0075 -294.371,138.898 -76.7812,80.8867 -125.025,188.757 -123.671,301.29 0.0366142,3.07441 0.122835,6.38977 0.257481,9.95198l0 0.875198zm57.3874 279.735c-57.7063,-80.9197 -91.1953,-179.115 -89.2725,-279.735 -0.121654,-3.25748 -0.204331,-6.74764 -0.248032,-10.4516 -1.45866,-121.189 50.2004,-237.045 132.423,-323.665 82.2213,-86.6162 195.195,-144.175 316.37,-148.774 2.97992,-0.112205 6.163,-0.193701 9.54686,-0.242126l-0.0011811 -0.0153543c61.702,-5.25827 122.549,3.58229 179.829,23.2358 60.991,20.928 117.95,54.1571 167.562,95.6824l12.7654 10.6854 -11.2028 12.3154c-18.965,20.8488 -38.2418,41.7355 -58.3406,62.6587 -19.539,20.3386 -39.7843,40.5638 -61.167,60.5729l-8.8252 8.25946 -10.2992 -6.25867c-39.7453,-24.1536 -83.4272,-45.4063 -128.524,-56.4662 -44.1154,-10.8201 -89.7225,-11.8689 -134.408,3.85866l-0.875198 0.311811c-6.78308,1.9311 -13.278,4.07717 -19.4788,6.42166 -63.7796,24.1158 -114.953,73.8449 -145.53,134.088 -30.5752,60.2422 -40.4788,130.841 -21.7288,196.697 1.90158,6.67796 4.02992,13.1469 6.38623,19.3807l0.37441 1.06181c2.87481,9.58938 6.33189,18.9189 10.3158,27.9603 26.7721,60.7453 77.2725,107.921 137.042,135.175 59.7922,27.2646 128.749,34.5284 192.402,15.4417 9.57166,-2.8689 19.0429,-6.34725 28.3571,-10.4528l1.06181 -0.438189c34.1835,-12.2398 62.8973,-33.6862 85.8993,-60.5103 21.45,-25.0158 37.9902,-54.6626 49.4374,-85.9359 -32.7981,-0.497244 -65.452,-0.67441 -98.1024,-0.850394 -49.5756,-0.26811 -99.1548,-0.537402 -148.406,-1.88858l-15.4417 -0.424016 -0.0590552 -15.5138 -0.0011811 -0.251575c-0.22441,-53.0682 -0.447638,-105.932 -0.223229,-159.032l0.0673229 -15.8504 15.8705 -0.0248032 53.765 -0.0826772c131.114,-0.211417 262.381,-0.422835 393.614,0.760631l14.7756 0.133465 1.03701 14.7413c5.04213,71.7083 1.6311,146.25 -16.187,216.64 -15.3437,60.6201 -41.3693,118.155 -81.8339,168.216l0.0307087 0.0236221c-58.4599,75.2457 -140.851,124.671 -230.801,148.656 -94.8969,25.3016 -198.364,22.1988 -290.945,-8.86536l-0.00590552 0.0188977c-96.0284,-31.5508 -178.864,-95.7083 -237.026,-177.269z"/><path class="fil0" d="M1492.71 807.68l0 -0.0401575 132.869 0 15.8563 0 0.0814961 15.9378c0.112205,22.4575 0.282284,44.9752 0.447638,67.493 0.124016,16.7681 0.249213,33.5386 0.351969,50.289 17.3977,0.10748 34.7953,0.245669 52.1788,0.399213 20.6492,0.12874 41.2807,0.23504 61.8638,0.341339l3.69567 0.0188977 15.874 0.0814961 0.0011811 15.8563 0 0.264567 0.0401575 0 0 132.869 0 15.8563 -15.9378 0.0814961c-22.4575,0.112205 -44.9752,0.282284 -67.493,0.447638 -16.7681,0.124016 -33.5362,0.249213 -50.2867,0.351969 -0.33189,37.0181 -0.516142,73.8497 -0.701575,110.806l-0.034252 6.89174 -0.080315 15.9555 -8.0752 -0.0401575 -7.80827 0 -44.4083 0.0011811 -73.1741 -0.0011811 -0.373229 0.0011811c-3.00591,0.0141732 -6.64607,0.0212599 -15.1122,0.0212599l-15.7843 0 0 -0.0236221 -0.080315 0 -0.0814961 -15.874 -0.00826772 -1.72205c-0.200788,-21.1784 -0.307087,-42.4359 -0.413386,-63.6615 -0.0862205,-17.4673 -0.173622,-34.9193 -0.315355,-52.4174 -37.0583,-0.33189 -73.93,-0.517323 -110.927,-0.702756l-6.89174 -0.034252 -15.9555 -0.080315 0.0401575 -7.95945 0 -7.95591 0 -117.55c-0.0141732,-3.08268 -0.022441,-6.66615 -0.022441,-15.4854l0 -15.7843 0.022441 0 0 -0.103937 15.9378 -0.0897638 0.843308 -0.00472441 9.11221 -0.046063 0.162992 -0.0011811c18.3756,-0.153543 36.8008,-0.245669 55.2024,-0.337796l19.4575 -0.0980316 0.205512 -0.00236221 0.819686 -0.00472441c10.6311,-0.0755906 21.2764,-0.157087 31.9382,-0.249213 0.131102,-21.1323 0.305906,-42.2646 0.499607,-63.3697 0.10748,-18.1465 0.200788,-36.2882 0.291733,-54.3874l0.0814961 -15.9378 15.8563 0 0.232677 0zm251.26 166.425c-16.5295,-0.161811 -33.0827,-0.322441 -49.6264,-0.468898l-0.0389764 0 -0.0968505 -0.0011811c-19.3666,-0.119291 -38.7201,-0.258662 -58.0087,-0.434646l-9.82087 -0.0531496 -15.724 -0.080315 -0.0011811 -0.112205 -0.0425197 0 -0.0484252 -9.4689 -0.0590552 -6.15119c-0.377953,-39.2587 -0.601182,-78.4666 -0.804331,-117.653l-101.205 0c-0.125197,12.8528 -0.251575,25.7209 -0.369685,38.5866l-0.00236221 0.32126 -0.0732284 11.9185c-0.131102,20.9055 -0.28937,41.7579 -0.490158,62.4615l-0.022441 4.26378 -0.080315 15.724 -0.0980316 0.0011811 0 0.0283465 -15.6555 0.16063c-15.5752,0.158268 -31.2107,0.262205 -46.8744,0.348425l-0.927166 0.00590552 -0.141732 0c-23.2418,0.161811 -46.4693,0.290551 -69.6886,0.411024l0 51.2115c0.0165354,13.4941 0.0236221,26.9977 0,40.5059l0 9.64607c16.924,0.0874016 33.8764,0.179528 50.8264,0.287008 22.376,0.140551 44.6906,0.311811 66.8268,0.533859l15.652 0.157087 0 0.0448819 0.284646 0.00236221 0.0791339 15.7158 0.596457 117.548c33.6343,0.00236221 24.9732,0.0165354 28.3831,0.011811 24.2918,-0.0401575 48.6331,-0.0826772 72.9792,-0.0129921 0.204331,-39.2126 0.424016,-78.5623 0.805512,-117.61l0.153543 -15.7323 0.0307087 0 0.00236221 -0.270473 15.7158 -0.0791339 117.565 -0.596457 0 -101.171z"/><path class="fil1" d="M668.199 725.871l0 0zm329.846 -1.66181c15.45,-16.0831 30.8906,-32.6929 46.317,-49.5414 -43.5083,-34.1551 -92.445,-61.5721 -144.475,-79.4257 -53.2205,-18.261 -109.675,-26.4803 -166.83,-21.6106l-1.12441 0c-3.06969,0.0366142 -6.38268,0.124016 -9.92127,0.257481 -112.441,4.26733 -217.585,58.0075 -294.371,138.898 -76.7812,80.8867 -125.025,188.757 -123.671,301.29 0.0366142,3.07441 0.122835,6.38977 0.257481,9.95198l0 0.875198c-1.92992,93.7642 29.3764,185.495 83.3883,261.234 54.3142,76.1658 131.519,136.029 220.899,165.395l0.125197 0.0625985c86.7367,29.1319 183.767,32.0303 272.825,8.28544 83.4095,-22.2402 159.702,-67.9335 213.677,-137.407l0.250394 -0.249213c37.3784,-46.1575 61.4965,-99.5954 75.8032,-156.116 15.7193,-62.0977 19.611,-127.925 16.2189,-192.017 -126.225,-1.03701 -252.412,-0.83504 -378.46,-0.633071l-37.8815 0.0578741c-0.111024,42.6095 0.0377953,85.1304 0.21378,127.76 44.2288,1.02284 88.2261,1.26142 132.221,1.49882 40.1445,0.216142 80.2926,0.434646 120.17,1.22717l20.824 0.413386 -5.8252 19.9618c-12.4795,42.7607 -33.3874,84.0012 -62.3788,117.809 -26.4319,30.8244 -59.5264,55.5272 -99.0355,69.7536 -10.2886,4.5 -20.778,8.33505 -31.4079,11.5217 -71.2075,21.352 -148.173,13.3063 -214.777,-17.0646 -66.6296,-30.3827 -123.017,-83.1757 -153.041,-151.302 -4.45512,-10.1114 -8.33859,-20.5807 -11.5913,-31.3772 -2.6811,-7.1504 -5.00788,-14.2063 -6.98504,-21.15 -21.0284,-73.8556 -10.0724,-152.733 23.9776,-219.821 34.0488,-67.0843 91.2757,-122.552 162.781,-149.589 7.35119,-2.78032 14.6847,-5.2193 21.9803,-7.28741 50.8181,-17.6669 102.155,-16.539 151.531,-4.42914 44.7059,10.9642 87.691,30.9461 127.097,53.9977 17.198,-16.4032 34.2579,-33.5764 51.2174,-51.2304z"/><path class="fil1" d="M1743.97 1075.28l0 -101.171 -49.6264 -0.468898 -0.0389764 0 -0.0968505 -0.0011811c-19.3666,-0.119291 -38.7201,-0.258662 -58.0087,-0.434646l-9.82087 -0.0531496 -15.724 -0.080315 -0.0011811 -0.112205 -0.0425197 0 -0.0484252 -9.4689 -0.0590552 -6.15119c-0.377953,-39.2587 -0.601182,-78.4666 -0.804331,-117.653l-101.205 0 -0.369685 38.5866 -0.00236221 0.32126 -0.0732284 11.9185c-0.131102,20.9055 -0.28937,41.7579 -0.490158,62.4615l-0.022441 4.26378 -0.080315 15.724 -0.0980316 0.0011811 0 0.0283465 -15.6555 0.16063c-15.5752,0.158268 -31.2107,0.262205 -46.8744,0.348425l-0.927166 0.00590552 -0.141732 0c-23.2418,0.161811 -46.4693,0.290551 -69.6886,0.411024l0 51.2115c0.0165354,13.4941 0.0236221,26.9977 0,40.5059l0 9.64607 50.8264 0.287008c22.376,0.140551 44.6906,0.311811 66.8268,0.533859l15.652 0.157087 0 0.0448819 0.284646 0.00236221 0.0791339 15.7158 0.596457 117.548c33.6343,0.00236221 24.9732,0.0165354 28.3831,0.011811 24.2918,-0.0401575 48.6331,-0.0826772 72.9792,-0.0129921 0.204331,-39.2126 0.424016,-78.5623 0.805512,-117.61l0.153543 -15.7323 0.0307087 0 0.00236221 -0.270473 15.7158 -0.0791339 117.565 -0.596457z"/></g><rect class="fil2" height="30" width="30"/></svg>