<?xml version="1.0" standalone="no"?>
<!DOCTYPE svg PUBLIC "-//W3C//DTD SVG 20010904//EN"
 "http://www.w3.org/TR/2001/REC-SVG-20010904/DTD/svg10.dtd">
<svg version="1.0" xmlns="http://www.w3.org/2000/svg"
 width="920.000000pt" height="872.000000pt" viewBox="0 0 920.000000 872.000000"
 preserveAspectRatio="xMidYMid meet">

<g transform="translate(0.000000,872.000000) scale(0.100000,-0.100000)"
fill="#000000" stroke="none">
<path d="M2790 7119 c-572 -57 -1072 -255 -1500 -597 -190 -151 -422 -403
-560 -607 -555 -822 -633 -1868 -205 -2750 410 -846 1191 -1413 2140 -1552
185 -27 591 -24 785 6 486 74 854 216 1185 457 478 347 845 912 974 1499 55
250 73 423 72 710 0 337 -22 538 -63 591 -45 57 15 54 -1296 54 l-1208 0 -44
-22 -45 -23 -5 -120 c-3 -66 -7 -310 -8 -542 l-3 -423 741 0 c407 0 740 -3
740 -8 0 -17 -49 -181 -69 -229 -172 -429 -533 -716 -1024 -815 -162 -33 -478
-33 -650 0 -509 97 -931 411 -1156 860 -177 354 -223 784 -125 1171 152 601
645 1064 1267 1192 146 29 360 36 510 15 268 -38 495 -132 713 -296 48 -36 93
-69 100 -75 11 -8 105 83 411 394 219 223 398 407 398 411 0 8 -133 117 -236
192 -184 136 -468 289 -673 363 -144 52 -345 103 -498 126 -154 24 -514 33
-668 18z"/>
<path d="M7290 5335 l0 -485 -485 0 -485 0 0 -82 c0 -46 5 -162 10 -258 5 -96
10 -214 11 -261 l2 -87 46 -6 c25 -3 241 -9 479 -12 l432 -7 0 -474 0 -473
350 0 350 0 0 475 0 475 480 0 480 0 0 355 0 355 -475 0 -475 0 -1 398 c0 218
-2 417 -5 442 -8 67 -35 114 -70 121 -16 4 -167 7 -336 8 l-308 1 0 -485z"/>
</g>
</svg>
